# xmcd
#
# Track frame offsets: 
#        150
#        14817
#        29507
#        47747
#        64067
#        89427
#        105442
#        129650
#        145045
#        165342
#
# Disc length: 2483 seconds
#
# Revision: 5
# Processed by: cddbd v1.4PL0 Copyright (c) Steve Scherf et al.
# Submitted via: ExactAudioCopy v0.90b4
#
DISCID=8309b10a
DTITLE=Pretty Cast Leona and Elena - Sailor Moon Best Song Collection: P
DTITLE=retty Cast
DYEAR=1996
DGENRE=Anime
TTITLE0=Moonlight Densetsu
TTITLE1=Otome no Policy
TTITLE2=Moon Revenge
TTITLE3=Tuxedo Mirage
TTITLE4=Moonlight Destiny
TTITLE5="rashiku" Ikimashou
TTITLE6=Watashi-tachi ni Naritakute
TTITLE7=Sanji no Yosei
TTITLE8=Morning Moon de Aimashou
TTITLE9=Sunshine Moonlight
EXTD=
EXTT0=
EXTT1=
EXTT2=
EXTT3=
EXTT4=
EXTT5=
EXTT6=
EXTT7=
EXTT8=
EXTT9=
PLAYORDER=
